<?xml version="1.0" encoding="UTF-8" standalone="no"?>
<svg
   xmlns:dc="http://purl.org/dc/elements/1.1/"
   xmlns:cc="http://creativecommons.org/ns#"
   xmlns:rdf="http://www.w3.org/1999/02/22-rdf-syntax-ns#"
   xmlns:svg="http://www.w3.org/2000/svg"
   xmlns="http://www.w3.org/2000/svg"
   xmlns:sodipodi="http://sodipodi.sourceforge.net/DTD/sodipodi-0.dtd"
   xmlns:inkscape="http://www.inkscape.org/namespaces/inkscape"
   width="24in"
   height="12in"
   viewBox="0 0 609.60001 304.80001"
   version="1.1"
   id="svg350"
   sodipodi:docname="ME30_Proj4_BoxTop.svg"
   inkscape:version="1.0.1 (3bc2e813f5, 2020-09-07)">
  <defs
     id="defs344" />
  <sodipodi:namedview
     id="base"
     pagecolor="#ffffff"
     bordercolor="#666666"
     borderopacity="1.0"
     inkscape:pageopacity="0.0"
     inkscape:pageshadow="2"
     inkscape:zoom="0.35355339"
     inkscape:cx="957.97192"
     inkscape:cy="747.58793"
     inkscape:document-units="in"
     inkscape:current-layer="layer1"
     inkscape:document-rotation="0"
     showgrid="false"
     units="in"
     inkscape:window-width="1920"
     inkscape:window-height="1177"
     inkscape:window-x="-8"
     inkscape:window-y="-8"
     inkscape:window-maximized="1" />
  <metadata
     id="metadata347">
    <rdf:RDF>
      <cc:Work
         rdf:about="">
        <dc:format>image/svg+xml</dc:format>
        <dc:type
           rdf:resource="http://purl.org/dc/dcmitype/StillImage" />
        <dc:title />
      </cc:Work>
    </rdf:RDF>
  </metadata>
  <g
     inkscape:label="Layer 1"
     inkscape:groupmode="layer"
     id="layer1">
    <g
       id="g1205"
       style="stroke-width:0.50800001;stroke-miterlimit:4;stroke-dasharray:none">
      <path
         d="M 8.5344,8.5343996 V 36.957 H 2.54 v 24.739605 h 5.9944 v 24.7142 H 2.54 V 111.15039 H 8.5344 V 135.8646 H 2.54 v 24.7396 h 5.9944 v 24.7142 H 2.54 v 24.7396 h 5.9944 v 24.7142 H 2.54 v 24.7396 h 5.9944 v 24.7142 3.7084 h 29.76877 v 5.9944 h 24.739505 v -5.9944 h 24.7142 v 5.9944 h 24.739605 v -5.9944 h 24.7142 v 5.9944 h 24.7396 v -5.9944 h 24.71421 v 5.9944 h 24.7396 v -5.9944 h 24.71421 v 5.9944 h 24.73971 v -5.9944 h 24.7142 v 5.9944 h 24.7396 v -5.9944 h 24.7142 v 5.9944 h 24.7396 v -5.9944 h 24.7142 5.0546 v -28.4226 h 5.9944 v -24.7396 h -5.9944 V 210.058 h 5.9944 v -24.7396 h -5.9944 v -24.7142 h 5.9944 v -24.7396 h -5.9944 v -24.71421 h 5.9944 V 86.410805 h -5.9944 v -24.7142 h 5.9944 V 36.957 h -5.9944 V 12.2428 8.5343996 h -29.7688 V 2.54 h -24.7396 v 5.9943996 h -24.7142 V 2.54 h -24.7396 v 5.9943996 h -24.7142 V 2.54 H 236.1183 V 8.5343996 H 211.40409 V 2.54 h -24.7396 V 8.5343996 H 161.95028 V 2.54 h -24.7396 v 5.9943996 h -24.7142 V 2.54 H 87.756875 v 5.9943996 h -24.7142 V 2.54 H 38.30317 V 8.5343996 H 13.589 Z"
         id="top_outsideCutPath"
         stroke="#FF0000"
         stroke-width="0.1"
         style="fill:none;stroke:#ff0000;stroke-width:0.50800001;stroke-miterlimit:4;stroke-dasharray:none"
         vector-effect="non-scaling-stroke" />
      <g
         id="g19"
         transform="translate(-0.00789007)"
         style="stroke-width:0.50800001;stroke-miterlimit:4;stroke-dasharray:none">
        <g
           id="g1197"
           style="stroke-width:0.50800001;stroke-miterlimit:4;stroke-dasharray:none">
          <polyline
             points="626.26,458.04 680.15,458.04"
             style="fill:none;stroke:#ff0000;stroke-width:0.36094543;stroke-miterlimit:4;stroke-dasharray:none"
             id="polyline3260"
             transform="matrix(1.407415,0,0,1.407415,-720.28822,-419.40684)" />
          <polyline
             points="626.26,458.04 626.26,493.96"
             style="fill:none;stroke:#ff0000;stroke-width:0.36094543;stroke-miterlimit:4;stroke-dasharray:none"
             id="polyline3636"
             transform="matrix(1.407415,0,0,1.407415,-720.28822,-419.40684)" />
          <polyline
             points="680.15,458.04 680.15,493.96"
             style="fill:none;stroke:#ff0000;stroke-width:0.36094543;stroke-miterlimit:4;stroke-dasharray:none"
             id="polyline3646"
             transform="matrix(1.407415,0,0,1.407415,-720.28822,-419.40684)" />
          <polyline
             points="626.26,493.96 680.15,493.96"
             style="fill:none;stroke:#ff0000;stroke-width:0.36094543;stroke-miterlimit:4;stroke-dasharray:none"
             id="polyline3648"
             transform="matrix(1.407415,0,0,1.407415,-720.28822,-419.40684)" />
        </g>
      </g>
    </g>
  </g>
</svg>
